<?xml version="1.0" standalone="no"?>
<!DOCTYPE svg PUBLIC "-//W3C//DTD SVG 20010904//EN"
 "http://www.w3.org/TR/2001/REC-SVG-20010904/DTD/svg10.dtd">
<svg version="1.0" xmlns="http://www.w3.org/2000/svg"
 width="500.000000pt" height="500.000000pt" viewBox="0 0 500.000000 500.000000"
 preserveAspectRatio="xMidYMid meet">
<metadata>
Created by potrace 1.14, written by Peter Selinger 2001-2017
</metadata>
<g transform="translate(0.000000,500.000000) scale(0.100000,-0.100000)"
fill="#000000" stroke="none">
<path d="M550 2425 l0 -925 235 0 235 0 0 290 0 290 383 0 382 0 138 138 137
137 0 355 0 355 -143 143 -142 142 -613 0 -612 0 0 -925z m1012 518 l48 -47 0
-185 0 -185 -47 -48 -47 -48 -248 0 -248 0 0 280 0 280 247 0 247 0 48 -47z"/>
<path d="M2990 2425 l0 -865 225 0 225 0 0 370 0 370 290 0 290 0 0 -370 0
-370 225 0 225 0 0 865 0 865 -225 0 -225 0 0 -320 0 -320 -290 0 -290 0 0
320 0 320 -225 0 -225 0 0 -865z"/>
</g>
</svg>
